<svg xmlns="http://www.w3.org/2000/svg" width="53.029" height="53.029" viewBox="0 0 53.029 53.029"><defs><style>.a{fill:#50e3c1;}</style></defs><path class="a" d="M42.479,12.747l3.751.643,6.8-6.8L47.4,5.626,46.438,0l-6.8,6.8.643,3.751-1.633,1.633a23.308,23.308,0,1,0,2.2,2.2Zm1.911-6.3.322,1.875,1.875.322L45.17,10.056l-1.875-.322-.322-1.875ZM43.5,29.724a20.222,20.222,0,1,1-7.064-15.331L32.028,18.8a14,14,0,1,0,2.2,2.2l4.411-4.411A20.11,20.11,0,0,1,43.5,29.724Zm-9.322,0a10.886,10.886,0,1,1-4.366-8.707l-4.5,4.5a4.663,4.663,0,1,0,2.2,2.2l4.5-4.5a10.819,10.819,0,0,1,2.169,6.51Zm-9.322,0a1.554,1.554,0,1,1-1.554-1.554A1.555,1.555,0,0,1,24.859,29.724Z"/></svg>