<svg xmlns="http://www.w3.org/2000/svg" xmlns:xlink="http://www.w3.org/1999/xlink" width="168" height="111.28" viewBox="0 0 168 111.28"><defs><style>.a{fill:#fff;}.b{filter:url(#a);}</style><filter id="a" x="0" y="0" width="168" height="111.28" filterUnits="userSpaceOnUse"><feOffset dy="3" input="SourceAlpha"/><feGaussianBlur stdDeviation="6" result="b"/><feFlood flood-opacity="0.161"/><feComposite operator="in" in2="b"/><feComposite in="SourceGraphic"/></filter></defs><g class="b" transform="matrix(1, 0, 0, 1, 0, 0)"><path class="a" d="M2333.186-2130.344l-8.057-11.28a.985.985,0,0,1-.188-.582H2274a10,10,0,0,1-10-10v-43a10,10,0,0,1,10-10h112a10,10,0,0,1,10,10v43a10,10,0,0,1-10,10h-42.941a.986.986,0,0,1-.188.582l-8.057,11.28a.994.994,0,0,1-.814.419A.994.994,0,0,1,2333.186-2130.344Z" transform="translate(-2246 2220.21)"/></g></svg>