<svg xmlns="http://www.w3.org/2000/svg" xmlns:xlink="http://www.w3.org/1999/xlink" width="351" height="189.976" viewBox="0 0 351 189.976"><defs><style>.a{fill:#fff;}.b{filter:url(#a);}</style><filter id="a" x="0" y="0" width="351" height="189.976" filterUnits="userSpaceOnUse"><feOffset dy="3" input="SourceAlpha"/><feGaussianBlur stdDeviation="12" result="b"/><feFlood flood-opacity="0.161"/><feComposite operator="in" in2="b"/><feComposite in="SourceGraphic"/></filter></defs><g class="b" transform="matrix(1, 0, 0, 1, 0, 0)"><path class="a" d="M2363.63-2121.531,2353.7-2139H2227a5,5,0,0,1-5-5v-90a5,5,0,0,1,5-5h269a5,5,0,0,1,5,5v90a5,5,0,0,1-5,5H2375.3l-9.927,17.47a.99.99,0,0,1-.869.506A.99.99,0,0,1,2363.63-2121.531Z" transform="translate(-2186 2272)"/></g></svg>