<svg xmlns="http://www.w3.org/2000/svg" width="21" height="16" viewBox="0 0 21 16"><defs><style>.a{fill:#BAC0E6;}</style></defs><path class="a" d="M19.031,64H1.969A1.985,1.985,0,0,0,0,66V78a1.985,1.985,0,0,0,1.969,2H19.031A1.985,1.985,0,0,0,21,78V66A1.985,1.985,0,0,0,19.031,64Zm0,2v1.7c-.92.761-2.386,1.944-5.52,4.437-.691.552-2.059,1.878-3.011,1.863-.952.016-2.321-1.311-3.011-1.863-3.134-2.493-4.6-3.676-5.52-4.437V66ZM1.969,78V70.267c.94.76,2.273,1.828,4.3,3.444.9.717,2.466,2.3,4.227,2.29,1.752.01,3.3-1.55,4.227-2.289,2.031-1.616,3.365-2.683,4.3-3.444V78Z" transform="translate(0 -64)"/></svg>