<svg xmlns="http://www.w3.org/2000/svg" width="32" height="27.001" viewBox="0 0 32 27.001"><defs><style>.a{fill:#d7f2e0;}.b{fill:#d9e6d5;}</style></defs><g transform="translate(-1211 -31)"><path class="a" d="M6440,322a9.923,9.923,0,0,1-7.151-3.01A6.5,6.5,0,0,0,6432.5,306c-.17,0-.344.007-.516.02a10.091,10.091,0,0,1,3.461-2.925A9.89,9.89,0,0,1,6440,302a10,10,0,0,1,0,20Z" transform="translate(-5214 -264)"/><circle class="b" cx="1" cy="1" r="1" transform="translate(1211 47)"/><circle class="b" cx="1" cy="1" r="1" transform="translate(1241 47)"/><circle class="b" cx="1" cy="1" r="1" transform="translate(1226 31)"/><circle class="b" cx="1.5" cy="1.5" r="1.5" transform="translate(1213 36)"/><circle class="b" cx="1.5" cy="1.5" r="1.5" transform="translate(1236 36)"/></g></svg>