<svg xmlns="http://www.w3.org/2000/svg" width="100" height="100" viewBox="0 0 100 100"><defs><style>.a{fill:#fdc43f;}</style></defs><path class="a" d="M50,0a50,50,0,1,0,50,50A49.972,49.972,0,0,0,50,0Zm0,92.188A42.188,42.188,0,1,1,92.188,50,42.164,42.164,0,0,1,50,92.188Z"/><g transform="translate(46.412 26.181)"><path class="a" d="M239.588,128.877A3.588,3.588,0,0,0,236,132.465v23.1a3.588,3.588,0,0,0,7.175,0v-23.1A3.588,3.588,0,0,0,239.588,128.877Z" transform="translate(-236 -128.877)"/></g><g transform="translate(45.157 63.527)"><circle class="a" cx="4.843" cy="4.843" r="4.843"/></g></svg>